<svg width="1200" height="630" viewBox="0 0 1200 630" fill="none" xmlns="http://www.w3.org/2000/svg">
  <rect width="1200" height="630" fill="#F7FAFC" />
  <rect width="1200" height="630" fill="url(#bg)" />
  <circle cx="170" cy="118" r="170" fill="url(#sunset)" opacity="0.75" />
  <circle cx="1030" cy="120" r="190" fill="url(#ocean)" opacity="0.42" />
  <circle cx="950" cy="540" r="230" fill="url(#glow)" opacity="0.5" />
  <rect x="86" y="98" width="1028" height="434" rx="40" fill="white" fill-opacity="0.86" />
  <rect x="86.5" y="98.5" width="1027" height="433" rx="39.5" stroke="white" stroke-opacity="0.7" />
  <g opacity="0.9">
    <rect x="146" y="150" width="136" height="136" rx="34" fill="url(#mark)" />
    <path d="M214.5 190C200.14 190 188.5 201.64 188.5 216C188.5 230.36 200.14 242 214.5 242C228.86 242 240.5 230.36 240.5 216C240.5 201.64 228.86 190 214.5 190ZM214.5 202C222.23 202 228.5 208.27 228.5 216C228.5 223.73 222.23 230 214.5 230C206.77 230 200.5 223.73 200.5 216C200.5 208.27 206.77 202 214.5 202Z" fill="#0F172A" />
    <path d="M184 250C193.716 237.882 205.973 231.823 220.77 231.823C234.645 231.823 247.055 237.618 258 249.21" stroke="#0F172A" stroke-width="12" stroke-linecap="round" />
  </g>
  <text x="330" y="198" fill="#64748B" font-family="Verdana, DejaVu Sans, sans-serif" font-size="28" font-weight="700" letter-spacing="10">LEVAMEN TECH</text>
  <text x="330" y="292" fill="#0F172A" font-family="Verdana, DejaVu Sans, sans-serif" font-size="62" font-weight="700">
    <tspan x="330" dy="0">Custom Websites for</tspan>
    <tspan x="330" dy="76">Service Businesses</tspan>
  </text>
  <text x="330" y="442" fill="#475569" font-family="Verdana, DejaVu Sans, sans-serif" font-size="28">
    <tspan x="330" dy="0">Clean branding, responsive builds, niche demos, and</tspan>
    <tspan x="330" dy="42">conversion-focused structure for modern small businesses.</tspan>
  </text>
  <defs>
    <linearGradient id="bg" x1="136" y1="82" x2="1040" y2="590" gradientUnits="userSpaceOnUse">
      <stop stop-color="#FFF4E8" />
      <stop offset="0.48" stop-color="#F8FBFF" />
      <stop offset="1" stop-color="#EEF5FF" />
    </linearGradient>
    <linearGradient id="sunset" x1="0" y1="0" x2="340" y2="340" gradientUnits="userSpaceOnUse">
      <stop stop-color="#FB923C" />
      <stop offset="1" stop-color="#FACC15" />
    </linearGradient>
    <linearGradient id="ocean" x1="840" y1="-10" x2="1140" y2="290" gradientUnits="userSpaceOnUse">
      <stop stop-color="#60A5FA" />
      <stop offset="1" stop-color="#2563EB" />
    </linearGradient>
    <radialGradient id="glow" cx="0" cy="0" r="1" gradientUnits="userSpaceOnUse" gradientTransform="translate(950 540) rotate(90) scale(230)">
      <stop stop-color="#60A5FA" />
      <stop offset="1" stop-color="#60A5FA" stop-opacity="0" />
    </radialGradient>
    <linearGradient id="mark" x1="146" y1="150" x2="282" y2="286" gradientUnits="userSpaceOnUse">
      <stop stop-color="#FB923C" />
      <stop offset="0.5" stop-color="#FACC15" />
      <stop offset="1" stop-color="#3B82F6" />
    </linearGradient>
  </defs>
</svg>
